<svg width="134" height="127" viewBox="0 0 134 127" fill="none" xmlns="http://www.w3.org/2000/svg">
<path d="M130.906 71C131.495 71 132.059 70.7662 132.475 70.3501C132.891 69.934 133.125 69.3697 133.125 68.7812V51.0312C133.125 50.4428 132.891 49.8785 132.475 49.4624C132.059 49.0463 131.495 48.8125 130.906 48.8125H109.884L110.605 44.375H110.938C111.526 44.375 112.09 44.1412 112.506 43.7251C112.922 43.309 113.156 42.7447 113.156 42.1562V33.2812C113.156 32.6928 112.922 32.1285 112.506 31.7124C112.09 31.2963 111.526 31.0625 110.938 31.0625V24.4062C110.938 22.0525 110.002 19.7951 108.338 18.1307C106.674 16.4663 104.416 15.5313 102.062 15.5312C99.7087 15.5313 97.4513 16.4663 95.7869 18.1307C94.1225 19.7951 93.1875 22.0525 93.1875 24.4062V31.0625C92.5991 31.0625 92.0347 31.2963 91.6186 31.7124C91.2025 32.1285 90.9688 32.6928 90.9688 33.2812V42.1562C90.9692 42.6778 91.1534 43.1825 91.489 43.5817C91.8245 43.981 92.29 44.2493 92.8037 44.3395L92.0781 48.8125H38.885L39.6061 44.375H39.9375C40.5259 44.375 41.0903 44.1412 41.5064 43.7251C41.9225 43.309 42.1562 42.7447 42.1562 42.1562V33.2812C42.1562 32.6928 41.9225 32.1285 41.5064 31.7124C41.0903 31.2963 40.5259 31.0625 39.9375 31.0625V24.4062C39.9375 22.0525 39.0025 19.7951 37.3381 18.1307C35.6737 16.4663 33.4163 15.5313 31.0625 15.5312C28.7087 15.5313 26.4513 16.4663 24.7869 18.1307C23.1225 19.7951 22.1875 22.0525 22.1875 24.4062V31.0625C21.5991 31.0625 21.0347 31.2963 20.6186 31.7124C20.2025 32.1285 19.9688 32.6928 19.9688 33.2812V42.1562C19.9692 42.6778 20.1534 43.1825 20.489 43.5817C20.8245 43.981 21.29 44.2493 21.8037 44.3395L21.0781 48.8125H2.21875C1.6303 48.8125 1.06595 49.0463 0.649857 49.4624C0.23376 49.8785 0 50.4428 0 51.0312V68.7812C0 69.3697 0.23376 69.934 0.649857 70.3501C1.06595 70.7662 1.6303 71 2.21875 71H17.4776L16.7676 75.4375H2.21875C1.6303 75.4375 1.06595 75.6713 0.649857 76.0874C0.23376 76.5035 0 77.0678 0 77.6562V95.4062C0 95.9947 0.23376 96.5591 0.649857 96.9751C1.06595 97.3912 1.6303 97.625 2.21875 97.625H13.1674L8.90273 123.894C8.85121 124.212 8.86928 124.537 8.95569 124.846C9.0421 125.156 9.19479 125.443 9.40318 125.688C9.61158 125.933 9.8707 126.13 10.1626 126.264C10.4545 126.399 10.7722 126.469 11.0938 126.469H24.4062C24.9333 126.469 25.4433 126.281 25.8448 125.94C26.2462 125.598 26.513 125.125 26.5973 124.605L28.0949 115.375H35.9934L37.7584 124.664C37.8548 125.171 38.1252 125.629 38.523 125.959C38.9208 126.288 39.421 126.469 39.9375 126.469H53.25C53.5764 126.469 53.8989 126.397 54.1943 126.258C54.4897 126.119 54.7508 125.916 54.9589 125.665C55.1671 125.413 55.3172 125.119 55.3986 124.803C55.48 124.487 55.4906 124.157 55.4296 123.836L53.8222 115.375H81.2864L79.9027 123.895C79.8513 124.213 79.8695 124.537 79.956 124.847C80.0425 125.156 80.1952 125.444 80.4035 125.688C80.6119 125.933 80.871 126.13 81.1628 126.264C81.4547 126.399 81.7723 126.469 82.0938 126.469H95.4062C95.9332 126.469 96.4431 126.282 96.8445 125.94C97.246 125.599 97.5128 125.126 97.5973 124.606L101.975 97.625H103.641L108.758 124.662C108.854 125.17 109.124 125.629 109.522 125.958C109.92 126.288 110.421 126.469 110.938 126.469H124.25C124.576 126.469 124.899 126.397 125.194 126.258C125.489 126.119 125.75 125.917 125.958 125.666C126.167 125.414 126.317 125.12 126.398 124.804C126.48 124.488 126.491 124.158 126.43 123.838L121.47 97.625H130.906C131.495 97.625 132.059 97.3912 132.475 96.9751C132.891 96.5591 133.125 95.9947 133.125 95.4062V77.6562C133.125 77.0678 132.891 76.5035 132.475 76.0874C132.059 75.6713 131.495 75.4375 130.906 75.4375H117.278L116.435 71H130.906ZM115.43 79.875H116.168L107.515 93.1875H99.4946L108.148 79.875H115.43ZM86.1821 93.1875L94.8352 79.875H102.855L94.202 93.1875H86.1821ZM83.4472 102.062H51.315L50.4718 97.625H84.1674L83.4472 102.062ZM22.9804 79.875L14.3273 93.1875H6.30707L14.9602 79.875H22.9804ZM28.273 79.875H36.2929L27.6398 93.1875H19.6196L28.273 79.875ZM26.9742 53.25L18.3211 66.5625H10.3008L18.954 53.25H26.9742ZM32.2664 53.25H40.2867L31.6336 66.5625H23.6133L32.2664 53.25ZM53.5992 53.25L44.9461 66.5625H36.9258L45.5789 53.25H53.5992ZM66.9117 53.25L58.2586 66.5625H50.2383L58.8914 53.25H66.9117ZM80.2242 53.25L71.571 66.5625H63.5508L72.2039 53.25H80.2242ZM93.5367 53.25L84.8835 66.5625H76.8633L85.5164 53.25H93.5367ZM106.849 53.25L98.196 66.5625H90.1758L98.8289 53.25H106.849ZM72.8696 93.1875L81.5227 79.875H89.5426L80.8895 93.1875H72.8696ZM59.5571 93.1875L68.2102 79.875H76.2301L67.577 93.1875H59.5571ZM47.8313 93.1875H46.2446L54.8977 79.875H62.9176L54.2645 93.1875H47.8313ZM32.9321 93.1875L41.5852 79.875H49.6051L40.952 93.1875H32.9321ZM46.2784 75.4375L45.4353 71H88.4777L87.7677 75.4375H46.2784ZM35.2842 71H40.9185L41.7616 75.4375H34.5739L35.2842 71ZM30.9754 97.625H32.6434L33.4865 102.062H30.2552L30.9754 97.625ZM38.0025 102.062L37.1593 97.625H45.9559L46.799 102.062H38.0025ZM92.2615 75.4375L92.9717 71H101.791L101.081 75.4375H92.2615ZM103.488 66.5625L112.141 53.25H120.162L111.509 66.5625H103.488ZM128.688 66.5625H116.801L125.454 53.25H128.688V66.5625ZM95.4062 39.9375V35.5H108.719V39.9375H95.4062ZM97.625 24.4062C97.625 23.2294 98.0925 22.1007 98.9247 21.2685C99.7569 20.4363 100.886 19.9688 102.062 19.9688C103.239 19.9688 104.368 20.4363 105.2 21.2685C106.032 22.1007 106.5 23.2294 106.5 24.4062V31.0625H97.625V24.4062ZM97.2936 44.375H106.112L105.391 48.8125H96.5739L97.2936 44.375ZM24.4062 39.9375V35.5H37.7188V39.9375H24.4062ZM26.625 24.4062C26.625 23.2294 27.0925 22.1007 27.9247 21.2685C28.7569 20.4363 29.8856 19.9688 31.0625 19.9688C32.2394 19.9688 33.3681 20.4363 34.2003 21.2685C35.0325 22.1007 35.5 23.2294 35.5 24.4062V31.0625H26.625V24.4062ZM26.2936 44.375H35.1117L34.3906 48.8125H25.5739L26.2936 44.375ZM4.4375 53.25H13.6617L5.00855 66.5625H4.4375V53.25ZM21.9717 71H30.7913L30.0813 75.4375H21.2617L21.9717 71ZM9.66793 79.875L4.4375 87.9216V79.875H9.66793ZM13.7008 122.031L17.6621 97.625H26.4719L22.5181 122.031H13.7008ZM50.5692 122.031H41.7743L40.5097 115.375H49.3053L50.5692 122.031ZM28.816 110.938L29.5371 106.5H82.7269L82.0058 110.938H28.816ZM93.5203 122.031H84.7008L88.6629 97.625H97.4799L93.5203 122.031ZM121.574 122.031H112.776L108.157 97.625H116.954L121.574 122.031ZM125.678 93.1875L128.688 88.5542V93.1875H125.678ZM128.688 80.4119L120.383 93.1875H112.807L121.46 79.875H128.688V80.4119ZM105.574 75.4375L106.284 71H111.918L112.762 75.4375H105.574Z" fill="#FAFAFA"/>
<path d="M31.0625 11.0938C31.6509 11.0938 32.2153 10.86 32.6314 10.4439C33.0475 10.0278 33.2812 9.46345 33.2812 8.875V2.21875C33.2812 1.6303 33.0475 1.06595 32.6314 0.649857C32.2153 0.233761 31.6509 0 31.0625 0C30.4741 0 29.9097 0.233761 29.4936 0.649857C29.0775 1.06595 28.8438 1.6303 28.8438 2.21875V8.875C28.8438 9.46345 29.0775 10.0278 29.4936 10.4439C29.9097 10.86 30.4741 11.0938 31.0625 11.0938Z" fill="#FAFAFA"/>
<path d="M18.5113 14.9929C18.9274 15.409 19.4918 15.6428 20.0802 15.6428C20.6687 15.6428 21.2331 15.409 21.6492 14.9929C22.0653 14.5768 22.299 14.0125 22.299 13.424C22.299 12.8355 22.0653 12.2712 21.6492 11.8551L16.9424 7.14854C16.5247 6.74014 15.9628 6.51291 15.3787 6.51618C14.7946 6.51945 14.2353 6.75295 13.8222 7.166C13.4092 7.57906 13.1757 8.13834 13.1724 8.72248C13.1691 9.30662 13.3964 9.86848 13.8048 10.2861L18.5113 14.9929Z" fill="#FAFAFA"/>
<path d="M8.875 26.625H15.5312C16.1197 26.625 16.684 26.3912 17.1001 25.9751C17.5162 25.559 17.75 24.9947 17.75 24.4062C17.75 23.8178 17.5162 23.2535 17.1001 22.8374C16.684 22.4213 16.1197 22.1875 15.5312 22.1875H8.875C8.28655 22.1875 7.7222 22.4213 7.30611 22.8374C6.89001 23.2535 6.65625 23.8178 6.65625 24.4062C6.65625 24.9947 6.89001 25.559 7.30611 25.9751C7.7222 26.3912 8.28655 26.625 8.875 26.625Z" fill="#FAFAFA"/>
<path d="M44.375 24.4062C44.375 24.9947 44.6088 25.559 45.0249 25.9751C45.441 26.3912 46.0053 26.625 46.5938 26.625H53.25C53.8384 26.625 54.4028 26.3912 54.8189 25.9751C55.235 25.559 55.4688 24.9947 55.4688 24.4062C55.4688 23.8178 55.235 23.2535 54.8189 22.8374C54.4028 22.4213 53.8384 22.1875 53.25 22.1875H46.5938C46.0053 22.1875 45.441 22.4213 45.0249 22.8374C44.6088 23.2535 44.375 23.8178 44.375 24.4062Z" fill="#FAFAFA"/>
<path d="M42.0453 15.6422C42.3367 15.6426 42.6254 15.5854 42.8946 15.4739C43.1639 15.3624 43.4084 15.1987 43.6142 14.9924L48.3208 10.2856C48.7292 9.86793 48.9564 9.30607 48.9531 8.72193C48.9499 8.13779 48.7164 7.57851 48.3033 7.16545C47.8902 6.7524 47.331 6.5189 46.7468 6.51563C46.1627 6.51236 45.6008 6.73959 45.1832 7.14799L40.4764 11.8545C40.1661 12.1648 39.9547 12.5602 39.8691 12.9906C39.7835 13.421 39.8274 13.8671 39.9954 14.2725C40.1633 14.678 40.4477 15.0245 40.8126 15.2683C41.1775 15.5121 41.6065 15.6422 42.0453 15.6422Z" fill="#FAFAFA"/>
<path d="M102.062 11.0938C102.651 11.0938 103.215 10.86 103.631 10.4439C104.047 10.0278 104.281 9.46345 104.281 8.875V2.21875C104.281 1.6303 104.047 1.06595 103.631 0.649857C103.215 0.233761 102.651 0 102.062 0C101.474 0 100.91 0.233761 100.494 0.649857C100.078 1.06595 99.8438 1.6303 99.8438 2.21875V8.875C99.8438 9.46345 100.078 10.0278 100.494 10.4439C100.91 10.86 101.474 11.0938 102.062 11.0938Z" fill="#FAFAFA"/>
<path d="M89.5113 14.9929C89.7173 15.199 89.9619 15.3624 90.2311 15.4739C90.5003 15.5854 90.7889 15.6428 91.0802 15.6428C91.3716 15.6428 91.6601 15.5854 91.9293 15.4739C92.1985 15.3624 92.4431 15.199 92.6492 14.9929C92.8552 14.7869 93.0186 14.5423 93.1301 14.2731C93.2417 14.0039 93.299 13.7154 93.299 13.424C93.299 13.1326 93.2417 12.8441 93.1301 12.5749C93.0186 12.3057 92.8552 12.0611 92.6492 11.8551L87.9424 7.14854C87.5247 6.74014 86.9629 6.51291 86.3787 6.51618C85.7946 6.51945 85.2353 6.75295 84.8222 7.166C84.4092 7.57906 84.1757 8.13834 84.1724 8.72248C84.1692 9.30662 84.3964 9.86848 84.8048 10.2861L89.5113 14.9929Z" fill="#FAFAFA"/>
<path d="M79.875 26.625H86.5312C87.1197 26.625 87.684 26.3912 88.1001 25.9751C88.5162 25.559 88.75 24.9947 88.75 24.4062C88.75 23.8178 88.5162 23.2535 88.1001 22.8374C87.684 22.4213 87.1197 22.1875 86.5312 22.1875H79.875C79.2866 22.1875 78.7222 22.4213 78.3061 22.8374C77.89 23.2535 77.6562 23.8178 77.6562 24.4062C77.6562 24.9947 77.89 25.559 78.3061 25.9751C78.7222 26.3912 79.2866 26.625 79.875 26.625Z" fill="#FAFAFA"/>
<path d="M115.375 24.4062C115.375 24.9947 115.609 25.559 116.025 25.9751C116.441 26.3912 117.005 26.625 117.594 26.625H124.25C124.838 26.625 125.403 26.3912 125.819 25.9751C126.235 25.559 126.469 24.9947 126.469 24.4062C126.469 23.8178 126.235 23.2535 125.819 22.8374C125.403 22.4213 124.838 22.1875 124.25 22.1875H117.594C117.005 22.1875 116.441 22.4213 116.025 22.8374C115.609 23.2535 115.375 23.8178 115.375 24.4062Z" fill="#FAFAFA"/>
<path d="M113.045 15.6422C113.337 15.6426 113.625 15.5854 113.895 15.4739C114.164 15.3624 114.408 15.1987 114.614 14.9924L119.321 10.2856C119.729 9.86793 119.956 9.30607 119.953 8.72193C119.95 8.13779 119.716 7.57851 119.303 7.16545C118.89 6.7524 118.331 6.5189 117.747 6.51563C117.163 6.51236 116.601 6.73959 116.183 7.14799L111.476 11.8545C111.166 12.1648 110.955 12.5602 110.869 12.9906C110.783 13.421 110.827 13.8671 110.995 14.2725C111.163 14.678 111.448 15.0245 111.813 15.2683C112.177 15.5121 112.606 15.6422 113.045 15.6422Z" fill="#FAFAFA"/>
</svg>
