<svg width="317" height="312" viewBox="0 0 317 312" fill="none" xmlns="http://www.w3.org/2000/svg">
<path d="M132.6 49.768C133.88 49.768 134.84 50.0453 135.48 50.6C136.12 51.1547 136.44 51.944 136.44 52.968C136.44 55.1013 135.16 56.168 132.6 56.168H129.336V61.224C129.336 62.5467 128.952 63.5707 128.184 64.296C127.459 65.0213 126.499 65.384 125.304 65.384C124.109 65.384 123.128 65.0213 122.36 64.296C121.635 63.5707 121.272 62.5467 121.272 61.224V56.168H104.504C103.352 56.168 102.456 55.848 101.816 55.208C101.176 54.5253 100.856 53.6933 100.856 52.712C100.856 51.688 101.197 50.7067 101.88 49.768L121.656 21.352C122.083 20.7547 122.616 20.3067 123.256 20.008C123.896 19.6667 124.557 19.496 125.24 19.496C126.349 19.496 127.309 19.8587 128.12 20.584C128.931 21.3093 129.336 22.3333 129.336 23.656V49.768H132.6ZM121.272 49.768V32.552L109.368 49.768H121.272ZM156.575 65.576C151.242 65.576 147.167 63.6133 144.351 59.688C141.535 55.72 140.127 49.96 140.127 42.408C140.127 34.8987 141.535 29.1813 144.351 25.256C147.167 21.288 151.242 19.304 156.575 19.304C161.908 19.304 165.983 21.288 168.799 25.256C171.615 29.1813 173.023 34.8987 173.023 42.408C173.023 49.9173 171.615 55.656 168.799 59.624C165.983 63.592 161.908 65.576 156.575 65.576ZM156.575 59.112C159.476 59.112 161.588 57.7893 162.911 55.144C164.234 52.456 164.895 48.2107 164.895 42.408C164.895 36.5627 164.234 32.3387 162.911 29.736C161.588 27.0907 159.476 25.768 156.575 25.768C153.674 25.768 151.562 27.0907 150.239 29.736C148.916 32.3813 148.255 36.6053 148.255 42.408C148.255 48.2107 148.916 52.456 150.239 55.144C151.562 57.7893 153.674 59.112 156.575 59.112ZM209.35 49.768C210.63 49.768 211.59 50.0453 212.23 50.6C212.87 51.1547 213.19 51.944 213.19 52.968C213.19 55.1013 211.91 56.168 209.35 56.168H206.086V61.224C206.086 62.5467 205.702 63.5707 204.934 64.296C204.209 65.0213 203.249 65.384 202.054 65.384C200.859 65.384 199.878 65.0213 199.11 64.296C198.385 63.5707 198.022 62.5467 198.022 61.224V56.168H181.254C180.102 56.168 179.206 55.848 178.566 55.208C177.926 54.5253 177.606 53.6933 177.606 52.712C177.606 51.688 177.947 50.7067 178.63 49.768L198.406 21.352C198.833 20.7547 199.366 20.3067 200.006 20.008C200.646 19.6667 201.307 19.496 201.99 19.496C203.099 19.496 204.059 19.8587 204.87 20.584C205.681 21.3093 206.086 22.3333 206.086 23.656V49.768H209.35ZM198.022 49.768V32.552L186.118 49.768H198.022Z" fill="#FAFAFA"/>
<path d="M9.52347 267.192C7.95547 267.192 6.58747 266.84 5.41947 266.136C4.26747 265.432 3.37947 264.432 2.75547 263.136C2.13147 261.84 1.81947 260.312 1.81947 258.552C1.81947 256.776 2.12347 255.24 2.73147 253.944C3.35547 252.632 4.24347 251.632 5.39547 250.944C6.56347 250.24 7.93947 249.888 9.52347 249.888C11.1075 249.888 12.4755 250.24 13.6275 250.944C14.7955 251.632 15.6835 252.632 16.2915 253.944C16.9155 255.24 17.2275 256.768 17.2275 258.528C17.2275 260.288 16.9155 261.824 16.2915 263.136C15.6675 264.432 14.7715 265.432 13.6035 266.136C12.4515 266.84 11.0915 267.192 9.52347 267.192ZM9.52347 265.512C11.3155 265.512 12.7075 264.912 13.6995 263.712C14.7075 262.496 15.2115 260.768 15.2115 258.528C15.2115 256.288 14.7155 254.568 13.7235 253.368C12.7315 252.168 11.3315 251.568 9.52347 251.568C7.73147 251.568 6.33147 252.176 5.32347 253.392C4.33147 254.592 3.83547 256.304 3.83547 258.528C3.83547 260.752 4.33147 262.472 5.32347 263.688C6.33147 264.904 7.73147 265.512 9.52347 265.512ZM25.3316 267.168C24.2276 267.168 23.2516 266.92 22.4036 266.424C21.5716 265.928 20.9236 265.224 20.4596 264.312C20.0116 263.384 19.7876 262.312 19.7876 261.096C19.7876 259.88 20.0116 258.816 20.4596 257.904C20.9236 256.976 21.5716 256.264 22.4036 255.768C23.2516 255.272 24.2276 255.024 25.3316 255.024C26.4356 255.024 27.4116 255.272 28.2596 255.768C29.1076 256.264 29.7556 256.976 30.2036 257.904C30.6676 258.816 30.8996 259.88 30.8996 261.096C30.8996 262.312 30.6676 263.384 30.2036 264.312C29.7556 265.224 29.1076 265.928 28.2596 266.424C27.4116 266.92 26.4356 267.168 25.3316 267.168ZM25.3316 265.56C26.4836 265.56 27.3636 265.184 27.9716 264.432C28.5956 263.664 28.9076 262.552 28.9076 261.096C28.9076 259.672 28.5956 258.576 27.9716 257.808C27.3476 257.024 26.4676 256.632 25.3316 256.632C24.1956 256.632 23.3156 257.024 22.6916 257.808C22.0676 258.576 21.7556 259.672 21.7556 261.096C21.7556 262.536 22.0596 263.64 22.6676 264.408C23.2916 265.176 24.1796 265.56 25.3316 265.56ZM39.6761 255.024C40.7001 255.024 41.6041 255.28 42.3881 255.792C43.1721 256.304 43.7801 257.024 44.2121 257.952C44.6441 258.864 44.8601 259.928 44.8601 261.144C44.8601 262.36 44.6441 263.424 44.2121 264.336C43.7801 265.232 43.1721 265.928 42.3881 266.424C41.6201 266.92 40.7161 267.168 39.6761 267.168C38.7641 267.168 37.9641 266.968 37.2761 266.568C36.6041 266.168 36.0921 265.6 35.7401 264.864V270.504C35.7401 270.792 35.6521 271.016 35.4761 271.176C35.3161 271.352 35.0841 271.44 34.7801 271.44C34.4761 271.44 34.2361 271.352 34.0601 271.176C33.8841 271 33.7961 270.776 33.7961 270.504V256.032C33.7961 255.744 33.8841 255.512 34.0601 255.336C34.2361 255.16 34.4761 255.072 34.7801 255.072C35.0841 255.072 35.3161 255.16 35.4761 255.336C35.6521 255.512 35.7401 255.744 35.7401 256.032V257.328C36.0921 256.592 36.6041 256.024 37.2761 255.624C37.9641 255.224 38.7641 255.024 39.6761 255.024ZM39.2921 265.56C40.4281 265.56 41.3081 265.176 41.9321 264.408C42.5561 263.64 42.8681 262.552 42.8681 261.144C42.8681 259.736 42.5561 258.64 41.9321 257.856C41.3081 257.056 40.4281 256.656 39.2921 256.656C38.1561 256.656 37.2761 257.04 36.6521 257.808C36.0441 258.576 35.7401 259.672 35.7401 261.096C35.7401 262.52 36.0441 263.624 36.6521 264.408C37.2761 265.176 38.1561 265.56 39.2921 265.56ZM51.7008 267.168C50.9648 267.168 50.2608 267.08 49.5888 266.904C48.9328 266.728 48.3488 266.48 47.8368 266.16C47.5488 265.968 47.3408 265.792 47.2128 265.632C47.1008 265.456 47.0448 265.248 47.0448 265.008C47.0448 264.8 47.1008 264.632 47.2128 264.504C47.3408 264.36 47.5008 264.288 47.6928 264.288C47.8848 264.288 48.1648 264.408 48.5328 264.648C49.0128 264.936 49.4848 265.168 49.9488 265.344C50.4288 265.504 51.0208 265.584 51.7248 265.584C52.5888 265.584 53.2608 265.432 53.7408 265.128C54.2208 264.824 54.4608 264.384 54.4608 263.808C54.4608 263.456 54.3728 263.176 54.1968 262.968C54.0208 262.744 53.7168 262.552 53.2848 262.392C52.8528 262.216 52.2208 262.04 51.3888 261.864C49.9808 261.56 48.9728 261.152 48.3648 260.64C47.7568 260.128 47.4528 259.432 47.4528 258.552C47.4528 257.864 47.6448 257.256 48.0288 256.728C48.4128 256.2 48.9408 255.784 49.6128 255.48C50.3008 255.176 51.0768 255.024 51.9408 255.024C52.5648 255.024 53.1648 255.112 53.7408 255.288C54.3328 255.448 54.8528 255.68 55.3008 255.984C55.8448 256.368 56.1168 256.768 56.1168 257.184C56.1168 257.392 56.0528 257.568 55.9248 257.712C55.7968 257.856 55.6448 257.928 55.4688 257.928C55.2768 257.928 54.9888 257.792 54.6048 257.52C54.1568 257.232 53.7328 257.008 53.3328 256.848C52.9328 256.688 52.4368 256.608 51.8448 256.608C51.0928 256.608 50.4848 256.776 50.0208 257.112C49.5728 257.448 49.3488 257.896 49.3488 258.456C49.3488 258.808 49.4288 259.096 49.5888 259.32C49.7648 259.528 50.0448 259.72 50.4288 259.896C50.8288 260.056 51.3968 260.216 52.1328 260.376C53.2208 260.616 54.0608 260.88 54.6528 261.168C55.2608 261.456 55.6928 261.808 55.9488 262.224C56.2048 262.64 56.3328 263.168 56.3328 263.808C56.3328 264.816 55.9088 265.632 55.0608 266.256C54.2128 266.864 53.0928 267.168 51.7008 267.168ZM60.0909 264.408C60.4909 264.408 60.8109 264.568 61.0509 264.888C61.3069 265.192 61.4349 265.656 61.4349 266.28C61.4349 267.544 61.0269 268.608 60.2109 269.472C60.0509 269.648 59.8669 269.736 59.6589 269.736C59.4989 269.736 59.3549 269.672 59.2269 269.544C59.0989 269.432 59.0349 269.296 59.0349 269.136C59.0349 268.96 59.0989 268.808 59.2269 268.68C59.6429 268.248 59.9069 267.712 60.0189 267.072C59.6669 267.04 59.3709 266.912 59.1309 266.688C58.9069 266.448 58.7949 266.144 58.7949 265.776C58.7949 265.376 58.9149 265.048 59.1549 264.792C59.4109 264.536 59.7229 264.408 60.0909 264.408ZM79.8988 264.288C80.0748 264.288 80.2268 264.36 80.3548 264.504C80.4828 264.648 80.5468 264.832 80.5468 265.056C80.5468 265.456 80.2668 265.824 79.7068 266.16C79.1308 266.496 78.5228 266.752 77.8828 266.928C77.2428 267.088 76.6188 267.168 76.0108 267.168C74.2028 267.168 72.7708 266.632 71.7148 265.56C70.6748 264.488 70.1548 263.008 70.1548 261.12C70.1548 259.92 70.3868 258.864 70.8508 257.952C71.3148 257.024 71.9628 256.304 72.7948 255.792C73.6428 255.28 74.6028 255.024 75.6748 255.024C77.1948 255.024 78.4028 255.52 79.2988 256.512C80.1948 257.504 80.6428 258.848 80.6428 260.544C80.6428 260.864 80.5788 261.096 80.4508 261.24C80.3228 261.384 80.1148 261.456 79.8268 261.456H72.0988C72.2428 264.208 73.5468 265.584 76.0108 265.584C76.6348 265.584 77.1708 265.504 77.6188 265.344C78.0668 265.168 78.5468 264.936 79.0588 264.648C79.4748 264.408 79.7548 264.288 79.8988 264.288ZM75.6988 256.536C74.6748 256.536 73.8508 256.856 73.2268 257.496C72.6188 258.136 72.2588 259.04 72.1468 260.208H78.9388C78.9068 259.024 78.6108 258.12 78.0508 257.496C77.4908 256.856 76.7068 256.536 75.6988 256.536ZM87.443 267.168C86.707 267.168 86.003 267.08 85.331 266.904C84.675 266.728 84.091 266.48 83.579 266.16C83.291 265.968 83.083 265.792 82.955 265.632C82.843 265.456 82.787 265.248 82.787 265.008C82.787 264.8 82.843 264.632 82.955 264.504C83.083 264.36 83.243 264.288 83.435 264.288C83.627 264.288 83.907 264.408 84.275 264.648C84.755 264.936 85.227 265.168 85.691 265.344C86.171 265.504 86.763 265.584 87.467 265.584C88.331 265.584 89.003 265.432 89.483 265.128C89.963 264.824 90.203 264.384 90.203 263.808C90.203 263.456 90.115 263.176 89.939 262.968C89.763 262.744 89.459 262.552 89.027 262.392C88.595 262.216 87.963 262.04 87.131 261.864C85.723 261.56 84.715 261.152 84.107 260.64C83.499 260.128 83.195 259.432 83.195 258.552C83.195 257.864 83.387 257.256 83.771 256.728C84.155 256.2 84.683 255.784 85.355 255.48C86.043 255.176 86.819 255.024 87.683 255.024C88.307 255.024 88.907 255.112 89.483 255.288C90.075 255.448 90.595 255.68 91.043 255.984C91.587 256.368 91.859 256.768 91.859 257.184C91.859 257.392 91.795 257.568 91.667 257.712C91.539 257.856 91.387 257.928 91.211 257.928C91.019 257.928 90.731 257.792 90.347 257.52C89.899 257.232 89.475 257.008 89.075 256.848C88.675 256.688 88.179 256.608 87.587 256.608C86.835 256.608 86.227 256.776 85.763 257.112C85.315 257.448 85.091 257.896 85.091 258.456C85.091 258.808 85.171 259.096 85.331 259.32C85.507 259.528 85.787 259.72 86.171 259.896C86.571 260.056 87.139 260.216 87.875 260.376C88.963 260.616 89.803 260.88 90.395 261.168C91.003 261.456 91.435 261.808 91.691 262.224C91.947 262.64 92.075 263.168 92.075 263.808C92.075 264.816 91.651 265.632 90.803 266.256C89.955 266.864 88.835 267.168 87.443 267.168ZM98.9743 267.168C98.2383 267.168 97.5343 267.08 96.8623 266.904C96.2063 266.728 95.6223 266.48 95.1103 266.16C94.8223 265.968 94.6143 265.792 94.4863 265.632C94.3743 265.456 94.3183 265.248 94.3183 265.008C94.3183 264.8 94.3743 264.632 94.4863 264.504C94.6143 264.36 94.7743 264.288 94.9663 264.288C95.1583 264.288 95.4383 264.408 95.8063 264.648C96.2863 264.936 96.7583 265.168 97.2223 265.344C97.7023 265.504 98.2943 265.584 98.9983 265.584C99.8623 265.584 100.534 265.432 101.014 265.128C101.494 264.824 101.734 264.384 101.734 263.808C101.734 263.456 101.646 263.176 101.47 262.968C101.294 262.744 100.99 262.552 100.558 262.392C100.126 262.216 99.4943 262.04 98.6623 261.864C97.2543 261.56 96.2463 261.152 95.6383 260.64C95.0303 260.128 94.7263 259.432 94.7263 258.552C94.7263 257.864 94.9183 257.256 95.3023 256.728C95.6863 256.2 96.2143 255.784 96.8863 255.48C97.5743 255.176 98.3503 255.024 99.2143 255.024C99.8383 255.024 100.438 255.112 101.014 255.288C101.606 255.448 102.126 255.68 102.574 255.984C103.118 256.368 103.39 256.768 103.39 257.184C103.39 257.392 103.326 257.568 103.198 257.712C103.07 257.856 102.918 257.928 102.742 257.928C102.55 257.928 102.262 257.792 101.878 257.52C101.43 257.232 101.006 257.008 100.606 256.848C100.206 256.688 99.7103 256.608 99.1183 256.608C98.3663 256.608 97.7583 256.776 97.2943 257.112C96.8463 257.448 96.6223 257.896 96.6223 258.456C96.6223 258.808 96.7023 259.096 96.8623 259.32C97.0383 259.528 97.3183 259.72 97.7023 259.896C98.1023 260.056 98.6703 260.216 99.4063 260.376C100.494 260.616 101.334 260.88 101.926 261.168C102.534 261.456 102.966 261.808 103.222 262.224C103.478 262.64 103.606 263.168 103.606 263.808C103.606 264.816 103.182 265.632 102.334 266.256C101.486 266.864 100.366 267.168 98.9743 267.168ZM111.346 255.024C114.274 255.024 115.738 256.56 115.738 259.632V266.16C115.738 266.448 115.65 266.68 115.474 266.856C115.314 267.032 115.09 267.12 114.802 267.12C114.514 267.12 114.282 267.032 114.106 266.856C113.93 266.68 113.842 266.448 113.842 266.16V265.008C113.538 265.696 113.074 266.232 112.45 266.616C111.826 266.984 111.106 267.168 110.29 267.168C109.538 267.168 108.842 267.016 108.202 266.712C107.578 266.408 107.082 265.984 106.714 265.44C106.346 264.896 106.162 264.296 106.162 263.64C106.162 262.76 106.386 262.08 106.834 261.6C107.282 261.104 108.018 260.752 109.042 260.544C110.066 260.32 111.49 260.208 113.314 260.208H113.842V259.416C113.842 258.456 113.642 257.752 113.242 257.304C112.858 256.856 112.226 256.632 111.346 256.632C110.258 256.632 109.154 256.928 108.034 257.52C107.602 257.792 107.298 257.928 107.122 257.928C106.93 257.928 106.77 257.856 106.642 257.712C106.514 257.568 106.45 257.384 106.45 257.16C106.45 256.936 106.514 256.744 106.642 256.584C106.786 256.408 107.01 256.232 107.314 256.056C107.874 255.736 108.506 255.488 109.21 255.312C109.93 255.12 110.642 255.024 111.346 255.024ZM110.554 265.632C111.514 265.632 112.298 265.312 112.906 264.672C113.53 264.016 113.842 263.176 113.842 262.152V261.456H113.41C112.002 261.456 110.93 261.52 110.194 261.648C109.458 261.76 108.93 261.96 108.61 262.248C108.306 262.52 108.154 262.928 108.154 263.472C108.154 264.096 108.378 264.616 108.826 265.032C109.29 265.432 109.866 265.632 110.554 265.632ZM131.364 255.024C132.388 255.024 133.292 255.28 134.076 255.792C134.86 256.304 135.468 257.024 135.9 257.952C136.332 258.864 136.548 259.928 136.548 261.144C136.548 262.36 136.332 263.424 135.9 264.336C135.468 265.232 134.86 265.928 134.076 266.424C133.308 266.92 132.404 267.168 131.364 267.168C130.452 267.168 129.652 266.968 128.964 266.568C128.292 266.168 127.78 265.6 127.428 264.864V270.504C127.428 270.792 127.34 271.016 127.164 271.176C127.004 271.352 126.772 271.44 126.468 271.44C126.164 271.44 125.924 271.352 125.748 271.176C125.572 271 125.484 270.776 125.484 270.504V256.032C125.484 255.744 125.572 255.512 125.748 255.336C125.924 255.16 126.164 255.072 126.468 255.072C126.772 255.072 127.004 255.16 127.164 255.336C127.34 255.512 127.428 255.744 127.428 256.032V257.328C127.78 256.592 128.292 256.024 128.964 255.624C129.652 255.224 130.452 255.024 131.364 255.024ZM130.98 265.56C132.116 265.56 132.996 265.176 133.62 264.408C134.244 263.64 134.556 262.552 134.556 261.144C134.556 259.736 134.244 258.64 133.62 257.856C132.996 257.056 132.116 256.656 130.98 256.656C129.844 256.656 128.964 257.04 128.34 257.808C127.732 258.576 127.428 259.672 127.428 261.096C127.428 262.52 127.732 263.624 128.34 264.408C128.964 265.176 129.844 265.56 130.98 265.56ZM144.228 255.024C147.156 255.024 148.62 256.56 148.62 259.632V266.16C148.62 266.448 148.532 266.68 148.356 266.856C148.196 267.032 147.972 267.12 147.684 267.12C147.396 267.12 147.164 267.032 146.988 266.856C146.812 266.68 146.724 266.448 146.724 266.16V265.008C146.42 265.696 145.956 266.232 145.332 266.616C144.708 266.984 143.988 267.168 143.172 267.168C142.42 267.168 141.724 267.016 141.084 266.712C140.46 266.408 139.964 265.984 139.596 265.44C139.228 264.896 139.044 264.296 139.044 263.64C139.044 262.76 139.268 262.08 139.716 261.6C140.164 261.104 140.9 260.752 141.924 260.544C142.948 260.32 144.372 260.208 146.196 260.208H146.724V259.416C146.724 258.456 146.524 257.752 146.124 257.304C145.74 256.856 145.108 256.632 144.228 256.632C143.14 256.632 142.036 256.928 140.916 257.52C140.484 257.792 140.18 257.928 140.004 257.928C139.812 257.928 139.652 257.856 139.524 257.712C139.396 257.568 139.332 257.384 139.332 257.16C139.332 256.936 139.396 256.744 139.524 256.584C139.668 256.408 139.892 256.232 140.196 256.056C140.756 255.736 141.388 255.488 142.092 255.312C142.812 255.12 143.524 255.024 144.228 255.024ZM143.436 265.632C144.396 265.632 145.18 265.312 145.788 264.672C146.412 264.016 146.724 263.176 146.724 262.152V261.456H146.292C144.884 261.456 143.812 261.52 143.076 261.648C142.34 261.76 141.812 261.96 141.492 262.248C141.188 262.52 141.036 262.928 141.036 263.472C141.036 264.096 141.26 264.616 141.708 265.032C142.172 265.432 142.748 265.632 143.436 265.632ZM144.66 253.752C144.532 253.848 144.404 253.896 144.276 253.896C144.116 253.896 143.98 253.848 143.868 253.752C143.756 253.64 143.7 253.512 143.7 253.368C143.7 253.24 143.748 253.12 143.844 253.008L146.628 249.36C146.916 248.992 147.244 248.808 147.612 248.808C147.868 248.808 148.084 248.896 148.26 249.072C148.436 249.232 148.524 249.44 148.524 249.696C148.524 250.032 148.364 250.336 148.044 250.608L144.66 253.752ZM161.659 255.072C161.963 255.072 162.203 255.16 162.379 255.336C162.555 255.512 162.643 255.744 162.643 256.032V266.208C162.643 267.952 162.195 269.264 161.299 270.144C160.403 271.04 159.075 271.488 157.315 271.488C155.603 271.488 154.179 271.152 153.043 270.48C152.467 270.16 152.179 269.792 152.179 269.376C152.179 269.152 152.235 268.968 152.347 268.824C152.475 268.68 152.635 268.608 152.827 268.608C152.987 268.608 153.275 268.72 153.691 268.944C154.251 269.232 154.803 269.464 155.347 269.64C155.891 269.816 156.539 269.904 157.291 269.904C158.427 269.904 159.283 269.6 159.859 268.992C160.435 268.4 160.723 267.528 160.723 266.376V264.312C160.387 265.064 159.867 265.64 159.163 266.04C158.475 266.44 157.659 266.64 156.715 266.64C155.691 266.64 154.779 266.4 153.979 265.92C153.195 265.44 152.579 264.76 152.131 263.88C151.699 263 151.483 261.984 151.483 260.832C151.483 259.68 151.699 258.664 152.131 257.784C152.579 256.904 153.195 256.224 153.979 255.744C154.779 255.264 155.691 255.024 156.715 255.024C157.643 255.024 158.451 255.224 159.139 255.624C159.827 256.024 160.347 256.592 160.699 257.328V256.032C160.699 255.744 160.779 255.512 160.939 255.336C161.115 255.16 161.355 255.072 161.659 255.072ZM157.099 265.032C158.219 265.032 159.099 264.664 159.739 263.928C160.379 263.176 160.699 262.144 160.699 260.832C160.699 259.536 160.379 258.52 159.739 257.784C159.115 257.032 158.235 256.656 157.099 256.656C155.963 256.656 155.067 257.032 154.411 257.784C153.771 258.52 153.451 259.536 153.451 260.832C153.451 262.144 153.771 263.176 154.411 263.928C155.067 264.664 155.963 265.032 157.099 265.032ZM167.225 267.12C166.937 267.12 166.697 267.04 166.505 266.88C166.329 266.704 166.241 266.464 166.241 266.16V256.032C166.241 255.728 166.329 255.496 166.505 255.336C166.697 255.16 166.937 255.072 167.225 255.072C167.513 255.072 167.745 255.16 167.921 255.336C168.097 255.496 168.185 255.728 168.185 256.032V266.16C168.185 266.48 168.097 266.72 167.921 266.88C167.745 267.04 167.513 267.12 167.225 267.12ZM167.225 252.552C166.841 252.552 166.529 252.44 166.289 252.216C166.049 251.992 165.929 251.696 165.929 251.328C165.929 250.976 166.049 250.688 166.289 250.464C166.529 250.24 166.841 250.128 167.225 250.128C167.609 250.128 167.921 250.24 168.161 250.464C168.401 250.688 168.521 250.976 168.521 251.328C168.521 251.696 168.401 251.992 168.161 252.216C167.921 252.44 167.609 252.552 167.225 252.552ZM177.7 255.024C180.5 255.024 181.9 256.568 181.9 259.656V266.16C181.9 266.464 181.812 266.704 181.636 266.88C181.476 267.04 181.244 267.12 180.94 267.12C180.636 267.12 180.396 267.04 180.22 266.88C180.044 266.704 179.956 266.464 179.956 266.16V259.776C179.956 258.688 179.74 257.896 179.308 257.4C178.892 256.904 178.22 256.656 177.292 256.656C176.22 256.656 175.364 256.984 174.724 257.64C174.084 258.296 173.764 259.184 173.764 260.304V266.16C173.764 266.464 173.676 266.704 173.5 266.88C173.34 267.04 173.108 267.12 172.804 267.12C172.5 267.12 172.26 267.04 172.084 266.88C171.908 266.704 171.82 266.464 171.82 266.16V256.032C171.82 255.744 171.908 255.512 172.084 255.336C172.26 255.16 172.5 255.072 172.804 255.072C173.092 255.072 173.316 255.16 173.476 255.336C173.652 255.512 173.74 255.736 173.74 256.008V257.232C174.124 256.512 174.66 255.968 175.348 255.6C176.036 255.216 176.82 255.024 177.7 255.024ZM190.236 255.024C193.164 255.024 194.628 256.56 194.628 259.632V266.16C194.628 266.448 194.54 266.68 194.364 266.856C194.204 267.032 193.98 267.12 193.692 267.12C193.404 267.12 193.172 267.032 192.996 266.856C192.82 266.68 192.732 266.448 192.732 266.16V265.008C192.428 265.696 191.964 266.232 191.34 266.616C190.716 266.984 189.996 267.168 189.18 267.168C188.428 267.168 187.732 267.016 187.092 266.712C186.468 266.408 185.972 265.984 185.604 265.44C185.236 264.896 185.052 264.296 185.052 263.64C185.052 262.76 185.276 262.08 185.724 261.6C186.172 261.104 186.908 260.752 187.932 260.544C188.956 260.32 190.38 260.208 192.204 260.208H192.732V259.416C192.732 258.456 192.532 257.752 192.132 257.304C191.748 256.856 191.116 256.632 190.236 256.632C189.148 256.632 188.044 256.928 186.924 257.52C186.492 257.792 186.188 257.928 186.012 257.928C185.82 257.928 185.66 257.856 185.532 257.712C185.404 257.568 185.34 257.384 185.34 257.16C185.34 256.936 185.404 256.744 185.532 256.584C185.676 256.408 185.9 256.232 186.204 256.056C186.764 255.736 187.396 255.488 188.1 255.312C188.82 255.12 189.532 255.024 190.236 255.024ZM189.444 265.632C190.404 265.632 191.188 265.312 191.796 264.672C192.42 264.016 192.732 263.176 192.732 262.152V261.456H192.3C190.892 261.456 189.82 261.52 189.084 261.648C188.348 261.76 187.82 261.96 187.5 262.248C187.196 262.52 187.044 262.928 187.044 263.472C187.044 264.096 187.268 264.616 187.716 265.032C188.18 265.432 188.756 265.632 189.444 265.632ZM210.254 255.024C213.054 255.024 214.454 256.568 214.454 259.656V266.16C214.454 266.464 214.366 266.704 214.19 266.88C214.03 267.04 213.798 267.12 213.494 267.12C213.19 267.12 212.95 267.04 212.774 266.88C212.598 266.704 212.51 266.464 212.51 266.16V259.776C212.51 258.688 212.294 257.896 211.862 257.4C211.446 256.904 210.774 256.656 209.846 256.656C208.774 256.656 207.918 256.984 207.278 257.64C206.638 258.296 206.318 259.184 206.318 260.304V266.16C206.318 266.464 206.23 266.704 206.054 266.88C205.894 267.04 205.662 267.12 205.358 267.12C205.054 267.12 204.814 267.04 204.638 266.88C204.462 266.704 204.374 266.464 204.374 266.16V256.032C204.374 255.744 204.462 255.512 204.638 255.336C204.814 255.16 205.054 255.072 205.358 255.072C205.646 255.072 205.87 255.16 206.03 255.336C206.206 255.512 206.294 255.736 206.294 256.008V257.232C206.678 256.512 207.214 255.968 207.902 255.6C208.59 255.216 209.374 255.024 210.254 255.024ZM222.791 255.024C225.719 255.024 227.183 256.56 227.183 259.632V266.16C227.183 266.448 227.095 266.68 226.919 266.856C226.759 267.032 226.535 267.12 226.247 267.12C225.959 267.12 225.727 267.032 225.551 266.856C225.375 266.68 225.287 266.448 225.287 266.16V265.008C224.983 265.696 224.519 266.232 223.895 266.616C223.271 266.984 222.551 267.168 221.735 267.168C220.983 267.168 220.287 267.016 219.647 266.712C219.023 266.408 218.527 265.984 218.159 265.44C217.791 264.896 217.607 264.296 217.607 263.64C217.607 262.76 217.831 262.08 218.279 261.6C218.727 261.104 219.463 260.752 220.487 260.544C221.511 260.32 222.935 260.208 224.759 260.208H225.287V259.416C225.287 258.456 225.087 257.752 224.687 257.304C224.303 256.856 223.671 256.632 222.791 256.632C221.703 256.632 220.599 256.928 219.479 257.52C219.047 257.792 218.743 257.928 218.567 257.928C218.375 257.928 218.215 257.856 218.087 257.712C217.959 257.568 217.895 257.384 217.895 257.16C217.895 256.936 217.959 256.744 218.087 256.584C218.231 256.408 218.455 256.232 218.759 256.056C219.319 255.736 219.951 255.488 220.655 255.312C221.375 255.12 222.087 255.024 222.791 255.024ZM221.999 265.632C222.959 265.632 223.743 265.312 224.351 264.672C224.975 264.016 225.287 263.176 225.287 262.152V261.456H224.855C223.447 261.456 222.375 261.52 221.639 261.648C220.903 261.76 220.375 261.96 220.055 262.248C219.751 262.52 219.599 262.928 219.599 263.472C219.599 264.096 219.823 264.616 220.271 265.032C220.735 265.432 221.311 265.632 221.999 265.632ZM224.495 252.84C224.191 252.84 223.895 252.768 223.607 252.624C223.319 252.48 222.975 252.272 222.575 252C222.223 251.776 221.943 251.616 221.735 251.52C221.527 251.408 221.335 251.352 221.159 251.352C220.887 251.352 220.671 251.424 220.511 251.568C220.367 251.712 220.223 251.912 220.079 252.168C219.967 252.344 219.871 252.48 219.791 252.576C219.711 252.656 219.615 252.696 219.503 252.696C219.359 252.696 219.239 252.64 219.143 252.528C219.047 252.416 218.999 252.272 218.999 252.096C218.999 251.808 219.087 251.488 219.263 251.136C219.439 250.784 219.687 250.48 220.007 250.224C220.327 249.968 220.687 249.84 221.087 249.84C221.391 249.84 221.687 249.912 221.975 250.056C222.263 250.2 222.607 250.408 223.007 250.68C223.359 250.904 223.639 251.072 223.847 251.184C224.055 251.28 224.247 251.328 224.423 251.328C224.679 251.328 224.879 251.256 225.023 251.112C225.183 250.968 225.343 250.768 225.503 250.512C225.615 250.32 225.711 250.184 225.791 250.104C225.871 250.008 225.967 249.96 226.079 249.96C226.223 249.96 226.343 250.024 226.439 250.152C226.535 250.264 226.583 250.408 226.583 250.584C226.583 250.856 226.495 251.176 226.319 251.544C226.143 251.896 225.895 252.2 225.575 252.456C225.255 252.712 224.895 252.84 224.495 252.84ZM235.589 267.168C234.485 267.168 233.509 266.92 232.661 266.424C231.829 265.928 231.181 265.224 230.717 264.312C230.269 263.384 230.045 262.312 230.045 261.096C230.045 259.88 230.269 258.816 230.717 257.904C231.181 256.976 231.829 256.264 232.661 255.768C233.509 255.272 234.485 255.024 235.589 255.024C236.693 255.024 237.669 255.272 238.517 255.768C239.365 256.264 240.013 256.976 240.461 257.904C240.925 258.816 241.157 259.88 241.157 261.096C241.157 262.312 240.925 263.384 240.461 264.312C240.013 265.224 239.365 265.928 238.517 266.424C237.669 266.92 236.693 267.168 235.589 267.168ZM235.589 265.56C236.741 265.56 237.621 265.184 238.229 264.432C238.853 263.664 239.165 262.552 239.165 261.096C239.165 259.672 238.853 258.576 238.229 257.808C237.605 257.024 236.725 256.632 235.589 256.632C234.453 256.632 233.573 257.024 232.949 257.808C232.325 258.576 232.013 259.672 232.013 261.096C232.013 262.536 232.317 263.64 232.925 264.408C233.549 265.176 234.437 265.56 235.589 265.56ZM259.289 264.288C259.465 264.288 259.617 264.36 259.745 264.504C259.873 264.648 259.937 264.832 259.937 265.056C259.937 265.456 259.657 265.824 259.097 266.16C258.521 266.496 257.913 266.752 257.273 266.928C256.633 267.088 256.009 267.168 255.401 267.168C253.593 267.168 252.161 266.632 251.105 265.56C250.065 264.488 249.545 263.008 249.545 261.12C249.545 259.92 249.777 258.864 250.241 257.952C250.705 257.024 251.353 256.304 252.185 255.792C253.033 255.28 253.993 255.024 255.065 255.024C256.585 255.024 257.793 255.52 258.689 256.512C259.585 257.504 260.033 258.848 260.033 260.544C260.033 260.864 259.969 261.096 259.841 261.24C259.713 261.384 259.505 261.456 259.217 261.456H251.489C251.633 264.208 252.937 265.584 255.401 265.584C256.025 265.584 256.561 265.504 257.009 265.344C257.457 265.168 257.937 264.936 258.449 264.648C258.865 264.408 259.145 264.288 259.289 264.288ZM255.089 256.536C254.065 256.536 253.241 256.856 252.617 257.496C252.009 258.136 251.649 259.04 251.537 260.208H258.329C258.297 259.024 258.001 258.12 257.441 257.496C256.881 256.856 256.097 256.536 255.089 256.536ZM272.334 265.512C272.526 265.704 272.622 265.936 272.622 266.208C272.622 266.448 272.534 266.656 272.358 266.832C272.182 267.008 271.974 267.096 271.734 267.096C271.478 267.096 271.246 266.984 271.038 266.76L267.15 262.32L263.286 266.76C263.078 266.984 262.846 267.096 262.59 267.096C262.35 267.096 262.134 267.008 261.942 266.832C261.766 266.656 261.678 266.44 261.678 266.184C261.678 265.944 261.774 265.72 261.966 265.512L265.95 261.024L262.134 256.68C261.942 256.456 261.846 256.232 261.846 256.008C261.846 255.752 261.934 255.536 262.11 255.36C262.302 255.184 262.51 255.096 262.734 255.096C262.99 255.096 263.222 255.208 263.43 255.432L267.15 259.704L270.87 255.432C271.078 255.208 271.31 255.096 271.566 255.096C271.806 255.096 272.014 255.184 272.19 255.36C272.366 255.536 272.454 255.744 272.454 255.984C272.454 256.256 272.358 256.488 272.166 256.68L268.35 261.024L272.334 265.512ZM276.139 267.12C275.851 267.12 275.611 267.04 275.419 266.88C275.243 266.704 275.155 266.464 275.155 266.16V256.032C275.155 255.728 275.243 255.496 275.419 255.336C275.611 255.16 275.851 255.072 276.139 255.072C276.427 255.072 276.659 255.16 276.835 255.336C277.011 255.496 277.099 255.728 277.099 256.032V266.16C277.099 266.48 277.011 266.72 276.835 266.88C276.659 267.04 276.427 267.12 276.139 267.12ZM276.139 252.552C275.755 252.552 275.443 252.44 275.203 252.216C274.963 251.992 274.843 251.696 274.843 251.328C274.843 250.976 274.963 250.688 275.203 250.464C275.443 250.24 275.755 250.128 276.139 250.128C276.523 250.128 276.835 250.24 277.075 250.464C277.315 250.688 277.435 250.976 277.435 251.328C277.435 251.696 277.315 251.992 277.075 252.216C276.835 252.44 276.523 252.552 276.139 252.552ZM284.67 267.168C283.934 267.168 283.23 267.08 282.558 266.904C281.902 266.728 281.318 266.48 280.806 266.16C280.518 265.968 280.31 265.792 280.182 265.632C280.07 265.456 280.014 265.248 280.014 265.008C280.014 264.8 280.07 264.632 280.182 264.504C280.31 264.36 280.47 264.288 280.662 264.288C280.854 264.288 281.134 264.408 281.502 264.648C281.982 264.936 282.454 265.168 282.918 265.344C283.398 265.504 283.99 265.584 284.694 265.584C285.558 265.584 286.23 265.432 286.71 265.128C287.19 264.824 287.43 264.384 287.43 263.808C287.43 263.456 287.342 263.176 287.166 262.968C286.99 262.744 286.686 262.552 286.254 262.392C285.822 262.216 285.19 262.04 284.358 261.864C282.95 261.56 281.942 261.152 281.334 260.64C280.726 260.128 280.422 259.432 280.422 258.552C280.422 257.864 280.614 257.256 280.998 256.728C281.382 256.2 281.91 255.784 282.582 255.48C283.27 255.176 284.046 255.024 284.91 255.024C285.534 255.024 286.134 255.112 286.71 255.288C287.302 255.448 287.822 255.68 288.27 255.984C288.814 256.368 289.086 256.768 289.086 257.184C289.086 257.392 289.022 257.568 288.894 257.712C288.766 257.856 288.614 257.928 288.438 257.928C288.246 257.928 287.958 257.792 287.574 257.52C287.126 257.232 286.702 257.008 286.302 256.848C285.902 256.688 285.406 256.608 284.814 256.608C284.062 256.608 283.454 256.776 282.99 257.112C282.542 257.448 282.318 257.896 282.318 258.456C282.318 258.808 282.398 259.096 282.558 259.32C282.734 259.528 283.014 259.72 283.398 259.896C283.798 260.056 284.366 260.216 285.102 260.376C286.19 260.616 287.03 260.88 287.622 261.168C288.23 261.456 288.662 261.808 288.918 262.224C289.174 262.64 289.302 263.168 289.302 263.808C289.302 264.816 288.878 265.632 288.03 266.256C287.182 266.864 286.062 267.168 284.67 267.168ZM297.548 265.584C298.108 265.632 298.388 265.888 298.388 266.352C298.388 266.624 298.284 266.832 298.076 266.976C297.884 267.104 297.588 267.152 297.188 267.12L296.54 267.072C295.26 266.976 294.316 266.592 293.708 265.92C293.1 265.248 292.796 264.232 292.796 262.872V256.848H291.188C290.916 256.848 290.7 256.784 290.54 256.656C290.396 256.512 290.324 256.328 290.324 256.104C290.324 255.864 290.396 255.672 290.54 255.528C290.7 255.384 290.916 255.312 291.188 255.312H292.796V252.6C292.796 252.296 292.884 252.064 293.06 251.904C293.236 251.728 293.476 251.64 293.78 251.64C294.068 251.64 294.3 251.728 294.476 251.904C294.652 252.064 294.74 252.296 294.74 252.6V255.312H297.404C297.66 255.312 297.86 255.384 298.004 255.528C298.164 255.672 298.244 255.864 298.244 256.104C298.244 256.328 298.164 256.512 298.004 256.656C297.86 256.784 297.66 256.848 297.404 256.848H294.74V262.968C294.74 263.848 294.916 264.488 295.268 264.888C295.636 265.272 296.18 265.488 296.9 265.536L297.548 265.584ZM309.352 264.288C309.528 264.288 309.68 264.36 309.808 264.504C309.936 264.648 310 264.832 310 265.056C310 265.456 309.72 265.824 309.16 266.16C308.584 266.496 307.976 266.752 307.336 266.928C306.696 267.088 306.072 267.168 305.464 267.168C303.656 267.168 302.224 266.632 301.168 265.56C300.128 264.488 299.608 263.008 299.608 261.12C299.608 259.92 299.84 258.864 300.304 257.952C300.768 257.024 301.416 256.304 302.248 255.792C303.096 255.28 304.056 255.024 305.128 255.024C306.648 255.024 307.856 255.52 308.752 256.512C309.648 257.504 310.096 258.848 310.096 260.544C310.096 260.864 310.032 261.096 309.904 261.24C309.776 261.384 309.568 261.456 309.28 261.456H301.552C301.696 264.208 303 265.584 305.464 265.584C306.088 265.584 306.624 265.504 307.072 265.344C307.52 265.168 308 264.936 308.512 264.648C308.928 264.408 309.208 264.288 309.352 264.288ZM305.152 256.536C304.128 256.536 303.304 256.856 302.68 257.496C302.072 258.136 301.712 259.04 301.6 260.208H308.392C308.36 259.024 308.064 258.12 307.504 257.496C306.944 256.856 306.16 256.536 305.152 256.536ZM313.92 267.12C313.536 267.12 313.216 267 312.96 266.76C312.704 266.504 312.576 266.176 312.576 265.776C312.576 265.376 312.704 265.048 312.96 264.792C313.216 264.536 313.536 264.408 313.92 264.408C314.288 264.408 314.592 264.536 314.832 264.792C315.088 265.048 315.216 265.376 315.216 265.776C315.216 266.176 315.088 266.504 314.832 266.76C314.592 267 314.288 267.12 313.92 267.12Z" fill="#FAFAFA"/>
<path d="M149.375 299.732C149.415 299.644 149.471 299.576 149.543 299.528C149.623 299.48 149.707 299.456 149.795 299.456C149.923 299.456 150.035 299.5 150.131 299.588C150.235 299.668 150.287 299.768 150.287 299.888C150.287 299.952 150.271 300.016 150.239 300.08L146.795 307.736C146.747 307.84 146.675 307.92 146.579 307.976C146.483 308.032 146.379 308.06 146.267 308.06C146.155 308.06 146.051 308.032 145.955 307.976C145.859 307.92 145.787 307.84 145.739 307.736L142.307 300.08C142.283 300.016 142.271 299.956 142.271 299.9C142.271 299.772 142.323 299.668 142.427 299.588C142.531 299.5 142.647 299.456 142.775 299.456C142.967 299.456 143.107 299.548 143.195 299.732L146.291 306.728L149.375 299.732ZM153.08 308.084C152.528 308.084 152.04 307.96 151.616 307.712C151.2 307.464 150.876 307.112 150.644 306.656C150.42 306.192 150.308 305.656 150.308 305.048C150.308 304.44 150.42 303.908 150.644 303.452C150.876 302.988 151.2 302.632 151.616 302.384C152.04 302.136 152.528 302.012 153.08 302.012C153.632 302.012 154.12 302.136 154.544 302.384C154.968 302.632 155.292 302.988 155.516 303.452C155.748 303.908 155.864 304.44 155.864 305.048C155.864 305.656 155.748 306.192 155.516 306.656C155.292 307.112 154.968 307.464 154.544 307.712C154.12 307.96 153.632 308.084 153.08 308.084ZM153.08 307.28C153.656 307.28 154.096 307.092 154.4 306.716C154.712 306.332 154.868 305.776 154.868 305.048C154.868 304.336 154.712 303.788 154.4 303.404C154.088 303.012 153.648 302.816 153.08 302.816C152.512 302.816 152.072 303.012 151.76 303.404C151.448 303.788 151.292 304.336 151.292 305.048C151.292 305.768 151.444 306.32 151.748 306.704C152.06 307.088 152.504 307.28 153.08 307.28ZM157.804 308.06C157.66 308.06 157.54 308.02 157.444 307.94C157.356 307.852 157.312 307.732 157.312 307.58V299.96C157.312 299.808 157.356 299.692 157.444 299.612C157.54 299.524 157.66 299.48 157.804 299.48C157.94 299.48 158.052 299.524 158.14 299.612C158.236 299.692 158.284 299.808 158.284 299.96V307.58C158.284 307.732 158.236 307.852 158.14 307.94C158.052 308.02 157.94 308.06 157.804 308.06ZM162.801 307.292C163.081 307.316 163.221 307.444 163.221 307.676C163.221 307.812 163.169 307.916 163.065 307.988C162.969 308.052 162.821 308.076 162.621 308.06L162.297 308.036C161.657 307.988 161.185 307.796 160.881 307.46C160.577 307.124 160.425 306.616 160.425 305.936V302.924H159.621C159.485 302.924 159.377 302.892 159.297 302.828C159.225 302.756 159.189 302.664 159.189 302.552C159.189 302.432 159.225 302.336 159.297 302.264C159.377 302.192 159.485 302.156 159.621 302.156H160.425V300.8C160.425 300.648 160.469 300.532 160.557 300.452C160.645 300.364 160.765 300.32 160.917 300.32C161.061 300.32 161.177 300.364 161.265 300.452C161.353 300.532 161.397 300.648 161.397 300.8V302.156H162.729C162.857 302.156 162.957 302.192 163.029 302.264C163.109 302.336 163.149 302.432 163.149 302.552C163.149 302.664 163.109 302.756 163.029 302.828C162.957 302.892 162.857 302.924 162.729 302.924H161.397V305.984C161.397 306.424 161.485 306.744 161.661 306.944C161.845 307.136 162.117 307.244 162.477 307.268L162.801 307.292ZM166.567 302.012C168.031 302.012 168.763 302.78 168.763 304.316V307.58C168.763 307.724 168.719 307.84 168.631 307.928C168.551 308.016 168.439 308.06 168.295 308.06C168.151 308.06 168.035 308.016 167.947 307.928C167.859 307.84 167.815 307.724 167.815 307.58V307.004C167.663 307.348 167.431 307.616 167.119 307.808C166.807 307.992 166.447 308.084 166.039 308.084C165.663 308.084 165.315 308.008 164.995 307.856C164.683 307.704 164.435 307.492 164.251 307.22C164.067 306.948 163.975 306.648 163.975 306.32C163.975 305.88 164.087 305.54 164.311 305.3C164.535 305.052 164.903 304.876 165.415 304.772C165.927 304.66 166.639 304.604 167.551 304.604H167.815V304.208C167.815 303.728 167.715 303.376 167.515 303.152C167.323 302.928 167.007 302.816 166.567 302.816C166.023 302.816 165.471 302.964 164.911 303.26C164.695 303.396 164.543 303.464 164.455 303.464C164.359 303.464 164.279 303.428 164.215 303.356C164.151 303.284 164.119 303.192 164.119 303.08C164.119 302.968 164.151 302.872 164.215 302.792C164.287 302.704 164.399 302.616 164.551 302.528C164.831 302.368 165.147 302.244 165.499 302.156C165.859 302.06 166.215 302.012 166.567 302.012ZM166.171 307.316C166.651 307.316 167.043 307.156 167.347 306.836C167.659 306.508 167.815 306.088 167.815 305.576V305.228H167.599C166.895 305.228 166.359 305.26 165.991 305.324C165.623 305.38 165.359 305.48 165.199 305.624C165.047 305.76 164.971 305.964 164.971 306.236C164.971 306.548 165.083 306.808 165.307 307.016C165.539 307.216 165.827 307.316 166.171 307.316ZM173.435 302.036C173.771 302.012 173.939 302.148 173.939 302.444C173.939 302.572 173.903 302.676 173.831 302.756C173.759 302.828 173.635 302.872 173.459 302.888L173.099 302.924C172.563 302.972 172.163 303.164 171.899 303.5C171.643 303.828 171.515 304.216 171.515 304.664V307.58C171.515 307.74 171.471 307.86 171.383 307.94C171.295 308.02 171.179 308.06 171.035 308.06C170.891 308.06 170.771 308.02 170.675 307.94C170.587 307.852 170.543 307.732 170.543 307.58V302.516C170.543 302.364 170.591 302.248 170.687 302.168C170.783 302.08 170.899 302.036 171.035 302.036C171.163 302.036 171.271 302.08 171.359 302.168C171.447 302.248 171.491 302.36 171.491 302.504V303.176C171.659 302.824 171.895 302.556 172.199 302.372C172.511 302.188 172.867 302.08 173.267 302.048L173.435 302.036Z" fill="#FAFAFA"/>
<path d="M142.127 309.2H173.879V309.8H142.127V309.2Z" fill="#FAFAFA"/>
<path d="M220.906 168C221.495 168 222.059 167.766 222.475 167.35C222.891 166.934 223.125 166.37 223.125 165.781V148.031C223.125 147.443 222.891 146.878 222.475 146.462C222.059 146.046 221.495 145.812 220.906 145.812H199.884L200.605 141.375H200.938C201.526 141.375 202.09 141.141 202.506 140.725C202.922 140.309 203.156 139.745 203.156 139.156V130.281C203.156 129.693 202.922 129.128 202.506 128.712C202.09 128.296 201.526 128.062 200.938 128.062V121.406C200.938 119.052 200.002 116.795 198.338 115.131C196.674 113.466 194.416 112.531 192.062 112.531C189.709 112.531 187.451 113.466 185.787 115.131C184.123 116.795 183.188 119.052 183.188 121.406V128.062C182.599 128.062 182.035 128.296 181.619 128.712C181.203 129.128 180.969 129.693 180.969 130.281V139.156C180.969 139.678 181.153 140.182 181.489 140.582C181.825 140.981 182.29 141.249 182.804 141.339L182.078 145.812H128.885L129.606 141.375H129.938C130.526 141.375 131.09 141.141 131.506 140.725C131.922 140.309 132.156 139.745 132.156 139.156V130.281C132.156 129.693 131.922 129.128 131.506 128.712C131.09 128.296 130.526 128.062 129.938 128.062V121.406C129.938 119.052 129.002 116.795 127.338 115.131C125.674 113.466 123.416 112.531 121.062 112.531C118.709 112.531 116.451 113.466 114.787 115.131C113.123 116.795 112.188 119.052 112.188 121.406V128.062C111.599 128.062 111.035 128.296 110.619 128.712C110.203 129.128 109.969 129.693 109.969 130.281V139.156C109.969 139.678 110.153 140.182 110.489 140.582C110.825 140.981 111.29 141.249 111.804 141.339L111.078 145.812H92.2188C91.6303 145.812 91.066 146.046 90.6499 146.462C90.2338 146.878 90 147.443 90 148.031V165.781C90 166.37 90.2338 166.934 90.6499 167.35C91.066 167.766 91.6303 168 92.2188 168H107.478L106.768 172.438H92.2188C91.6303 172.438 91.066 172.671 90.6499 173.087C90.2338 173.503 90 174.068 90 174.656V192.406C90 192.995 90.2338 193.559 90.6499 193.975C91.066 194.391 91.6303 194.625 92.2188 194.625H103.167L98.9027 220.894C98.8512 221.212 98.8693 221.537 98.9557 221.846C99.0421 222.156 99.1948 222.443 99.4032 222.688C99.6116 222.933 99.8707 223.13 100.163 223.264C100.455 223.399 100.772 223.469 101.094 223.469H114.406C114.933 223.469 115.443 223.281 115.845 222.94C116.246 222.598 116.513 222.125 116.597 221.605L118.095 212.375H125.993L127.758 221.664C127.855 222.171 128.125 222.629 128.523 222.959C128.921 223.288 129.421 223.469 129.938 223.469H143.25C143.576 223.469 143.899 223.397 144.194 223.258C144.49 223.119 144.751 222.916 144.959 222.665C145.167 222.413 145.317 222.119 145.399 221.803C145.48 221.487 145.491 221.157 145.43 220.836L143.822 212.375H171.286L169.903 220.895C169.851 221.213 169.87 221.537 169.956 221.847C170.042 222.156 170.195 222.444 170.404 222.688C170.612 222.933 170.871 223.13 171.163 223.264C171.455 223.399 171.772 223.469 172.094 223.469H185.406C185.933 223.469 186.443 223.282 186.845 222.94C187.246 222.599 187.513 222.126 187.597 221.606L191.975 194.625H193.641L198.758 221.662C198.854 222.17 199.124 222.629 199.522 222.958C199.92 223.288 200.421 223.469 200.938 223.469H214.25C214.576 223.469 214.899 223.397 215.194 223.258C215.489 223.119 215.75 222.917 215.958 222.666C216.167 222.414 216.317 222.12 216.398 221.804C216.48 221.488 216.491 221.158 216.43 220.838L211.47 194.625H220.906C221.495 194.625 222.059 194.391 222.475 193.975C222.891 193.559 223.125 192.995 223.125 192.406V174.656C223.125 174.068 222.891 173.503 222.475 173.087C222.059 172.671 221.495 172.438 220.906 172.438H207.278L206.435 168H220.906ZM205.43 176.875H206.168L197.515 190.188H189.495L198.148 176.875H205.43ZM176.182 190.188L184.835 176.875H192.855L184.202 190.188H176.182ZM173.447 199.062H141.315L140.472 194.625H174.167L173.447 199.062ZM112.98 176.875L104.327 190.188H96.3071L104.96 176.875H112.98ZM118.273 176.875H126.293L117.64 190.188H109.62L118.273 176.875ZM116.974 150.25L108.321 163.562H100.301L108.954 150.25H116.974ZM122.266 150.25H130.287L121.634 163.562H113.613L122.266 150.25ZM143.599 150.25L134.946 163.562H126.926L135.579 150.25H143.599ZM156.912 150.25L148.259 163.562H140.238L148.891 150.25H156.912ZM170.224 150.25L161.571 163.562H153.551L162.204 150.25H170.224ZM183.537 150.25L174.884 163.562H166.863L175.516 150.25H183.537ZM196.849 150.25L188.196 163.562H180.176L188.829 150.25H196.849ZM162.87 190.188L171.523 176.875H179.543L170.89 190.188H162.87ZM149.557 190.188L158.21 176.875H166.23L157.577 190.188H149.557ZM137.831 190.188H136.245L144.898 176.875H152.918L144.265 190.188H137.831ZM122.932 190.188L131.585 176.875H139.605L130.952 190.188H122.932ZM136.278 172.438L135.435 168H178.478L177.768 172.438H136.278ZM125.284 168H130.918L131.762 172.438H124.574L125.284 168ZM120.975 194.625H122.643L123.486 199.062H120.255L120.975 194.625ZM128.002 199.062L127.159 194.625H135.956L136.799 199.062H128.002ZM182.261 172.438L182.972 168H191.791L191.081 172.438H182.261ZM193.488 163.562L202.141 150.25H210.162L201.509 163.562H193.488ZM218.688 163.562H206.801L215.454 150.25H218.688V163.562ZM185.406 136.938V132.5H198.719V136.938H185.406ZM187.625 121.406C187.625 120.229 188.093 119.101 188.925 118.268C189.757 117.436 190.886 116.969 192.062 116.969C193.239 116.969 194.368 117.436 195.2 118.268C196.032 119.101 196.5 120.229 196.5 121.406V128.062H187.625V121.406ZM187.294 141.375H196.112L195.391 145.812H186.574L187.294 141.375ZM114.406 136.938V132.5H127.719V136.938H114.406ZM116.625 121.406C116.625 120.229 117.093 119.101 117.925 118.268C118.757 117.436 119.886 116.969 121.062 116.969C122.239 116.969 123.368 117.436 124.2 118.268C125.032 119.101 125.5 120.229 125.5 121.406V128.062H116.625V121.406ZM116.294 141.375H125.112L124.391 145.812H115.574L116.294 141.375ZM94.4375 150.25H103.662L95.0086 163.562H94.4375V150.25ZM111.972 168H120.791L120.081 172.438H111.262L111.972 168ZM99.6679 176.875L94.4375 184.922V176.875H99.6679ZM103.701 219.031L107.662 194.625H116.472L112.518 219.031H103.701ZM140.569 219.031H131.774L130.51 212.375H139.305L140.569 219.031ZM118.816 207.938L119.537 203.5H172.727L172.006 207.938H118.816ZM183.52 219.031H174.701L178.663 194.625H187.48L183.52 219.031ZM211.574 219.031H202.776L198.157 194.625H206.954L211.574 219.031ZM215.678 190.188L218.688 185.554V190.188H215.678ZM218.688 177.412L210.383 190.188H202.807L211.46 176.875H218.688V177.412ZM195.574 172.438L196.284 168H201.918L202.762 172.438H195.574Z" fill="#FAFAFA"/>
<path d="M121.062 108.094C121.651 108.094 122.215 107.86 122.631 107.444C123.047 107.028 123.281 106.463 123.281 105.875V99.2188C123.281 98.6303 123.047 98.066 122.631 97.6499C122.215 97.2338 121.651 97 121.062 97C120.474 97 119.91 97.2338 119.494 97.6499C119.078 98.066 118.844 98.6303 118.844 99.2188V105.875C118.844 106.463 119.078 107.028 119.494 107.444C119.91 107.86 120.474 108.094 121.062 108.094Z" fill="#FAFAFA"/>
<path d="M108.511 111.993C108.927 112.409 109.492 112.643 110.08 112.643C110.669 112.643 111.233 112.409 111.649 111.993C112.065 111.577 112.299 111.012 112.299 110.424C112.299 109.836 112.065 109.271 111.649 108.855L106.942 104.149C106.525 103.74 105.963 103.513 105.379 103.516C104.795 103.519 104.235 103.753 103.822 104.166C103.409 104.579 103.176 105.138 103.172 105.722C103.169 106.307 103.396 106.868 103.805 107.286L108.511 111.993Z" fill="#FAFAFA"/>
<path d="M98.875 123.625H105.531C106.12 123.625 106.684 123.391 107.1 122.975C107.516 122.559 107.75 121.995 107.75 121.406C107.75 120.818 107.516 120.253 107.1 119.837C106.684 119.421 106.12 119.188 105.531 119.188H98.875C98.2866 119.188 97.7222 119.421 97.3061 119.837C96.89 120.253 96.6562 120.818 96.6562 121.406C96.6562 121.995 96.89 122.559 97.3061 122.975C97.7222 123.391 98.2866 123.625 98.875 123.625Z" fill="#FAFAFA"/>
<path d="M134.375 121.406C134.375 121.995 134.609 122.559 135.025 122.975C135.441 123.391 136.005 123.625 136.594 123.625H143.25C143.838 123.625 144.403 123.391 144.819 122.975C145.235 122.559 145.469 121.995 145.469 121.406C145.469 120.818 145.235 120.253 144.819 119.837C144.403 119.421 143.838 119.188 143.25 119.188H136.594C136.005 119.188 135.441 119.421 135.025 119.837C134.609 120.253 134.375 120.818 134.375 121.406Z" fill="#FAFAFA"/>
<path d="M132.045 112.642C132.337 112.643 132.625 112.585 132.895 112.474C133.164 112.362 133.408 112.199 133.614 111.992L138.321 107.286C138.729 106.868 138.956 106.306 138.953 105.722C138.95 105.138 138.716 104.579 138.303 104.165C137.89 103.752 137.331 103.519 136.747 103.516C136.163 103.512 135.601 103.74 135.183 104.148L130.476 108.855C130.166 109.165 129.955 109.56 129.869 109.991C129.783 110.421 129.827 110.867 129.995 111.273C130.163 111.678 130.448 112.024 130.813 112.268C131.177 112.512 131.606 112.642 132.045 112.642Z" fill="#FAFAFA"/>
<path d="M192.062 108.094C192.651 108.094 193.215 107.86 193.631 107.444C194.047 107.028 194.281 106.463 194.281 105.875V99.2188C194.281 98.6303 194.047 98.066 193.631 97.6499C193.215 97.2338 192.651 97 192.062 97C191.474 97 190.91 97.2338 190.494 97.6499C190.078 98.066 189.844 98.6303 189.844 99.2188V105.875C189.844 106.463 190.078 107.028 190.494 107.444C190.91 107.86 191.474 108.094 192.062 108.094Z" fill="#FAFAFA"/>
<path d="M179.511 111.993C179.717 112.199 179.962 112.362 180.231 112.474C180.5 112.585 180.789 112.643 181.08 112.643C181.372 112.643 181.66 112.585 181.929 112.474C182.199 112.362 182.443 112.199 182.649 111.993C182.855 111.787 183.019 111.542 183.13 111.273C183.242 111.004 183.299 110.715 183.299 110.424C183.299 110.133 183.242 109.844 183.13 109.575C183.019 109.306 182.855 109.061 182.649 108.855L177.942 104.149C177.525 103.74 176.963 103.513 176.379 103.516C175.795 103.519 175.235 103.753 174.822 104.166C174.409 104.579 174.176 105.138 174.172 105.722C174.169 106.307 174.396 106.868 174.805 107.286L179.511 111.993Z" fill="#FAFAFA"/>
<path d="M169.875 123.625H176.531C177.12 123.625 177.684 123.391 178.1 122.975C178.516 122.559 178.75 121.995 178.75 121.406C178.75 120.818 178.516 120.253 178.1 119.837C177.684 119.421 177.12 119.188 176.531 119.188H169.875C169.287 119.188 168.722 119.421 168.306 119.837C167.89 120.253 167.656 120.818 167.656 121.406C167.656 121.995 167.89 122.559 168.306 122.975C168.722 123.391 169.287 123.625 169.875 123.625Z" fill="#FAFAFA"/>
<path d="M205.375 121.406C205.375 121.995 205.609 122.559 206.025 122.975C206.441 123.391 207.005 123.625 207.594 123.625H214.25C214.838 123.625 215.403 123.391 215.819 122.975C216.235 122.559 216.469 121.995 216.469 121.406C216.469 120.818 216.235 120.253 215.819 119.837C215.403 119.421 214.838 119.188 214.25 119.188H207.594C207.005 119.188 206.441 119.421 206.025 119.837C205.609 120.253 205.375 120.818 205.375 121.406Z" fill="#FAFAFA"/>
<path d="M203.045 112.642C203.337 112.643 203.625 112.585 203.895 112.474C204.164 112.362 204.408 112.199 204.614 111.992L209.321 107.286C209.729 106.868 209.956 106.306 209.953 105.722C209.95 105.138 209.716 104.579 209.303 104.165C208.89 103.752 208.331 103.519 207.747 103.516C207.163 103.512 206.601 103.74 206.183 104.148L201.476 108.855C201.166 109.165 200.955 109.56 200.869 109.991C200.783 110.421 200.827 110.867 200.995 111.273C201.163 111.678 201.448 112.024 201.813 112.268C202.177 112.512 202.606 112.642 203.045 112.642Z" fill="#FAFAFA"/>
</svg>
