<svg width="20" height="20" viewBox="0 0 20 20" fill="none" xmlns="http://www.w3.org/2000/svg">
<path d="M18.9764 7.90056L17.5726 7.66242C17.4264 7.19031 17.2384 6.73491 17.0086 6.3004L17.8358 5.1431C18.1868 4.65009 18.1324 3.97744 17.7021 3.55129L16.4571 2.30625C16.2231 2.07228 15.9139 1.94276 15.5839 1.94276C15.3248 1.94276 15.0783 2.02214 14.8694 2.17255L13.708 2.99979C13.2567 2.76165 12.7846 2.56528 12.2958 2.41905L12.0618 1.03196C11.9616 0.43451 11.4477 0 10.8419 0H9.08293C8.47713 0 7.96323 0.43451 7.86296 1.03196L7.62064 2.45248C7.15271 2.59871 6.69731 2.79089 6.2628 3.02486L5.11385 2.19762C4.90495 2.04721 4.65427 1.96783 4.39524 1.96783C4.06518 1.96783 3.75183 2.09735 3.52204 2.33131L2.27282 3.57635C1.84667 4.00251 1.78818 4.67516 2.13913 5.16816L2.97472 6.34218C2.74493 6.78086 2.5611 7.23627 2.41905 7.70838L1.03196 7.94234C0.43451 8.04262 0 8.55651 0 9.16231V10.9212C0 11.5271 0.43451 12.0409 1.03196 12.1412L2.45248 12.3835C2.59871 12.8515 2.79089 13.3069 3.02486 13.7414L2.2018 14.8862C1.85085 15.3792 1.90516 16.0518 2.33549 16.478L3.58053 17.723C3.8145 17.957 4.12367 18.0865 4.45373 18.0865C4.71276 18.0865 4.95926 18.0071 5.16816 17.8567L6.34218 17.0211C6.76415 17.2425 7.20702 17.4222 7.66242 17.5642L7.89639 18.968C7.99666 19.5655 8.51055 20 9.11636 20H10.8795C11.4853 20 11.9992 19.5655 12.0994 18.968L12.3376 17.5642C12.8097 17.418 13.2651 17.23 13.6996 17.0002L14.8569 17.8274C15.0658 17.9779 15.3165 18.0572 15.5755 18.0572C15.9056 18.0572 16.2148 17.9277 16.4487 17.6938L17.6938 16.4487C18.1199 16.0226 18.1784 15.3499 17.8275 14.8569L17.0002 13.6954C17.23 13.2567 17.4222 12.8013 17.5642 12.3334L18.968 12.0994C19.5655 11.9992 20 11.4853 20 10.8795V9.12053C20.0084 8.51473 19.5738 8.00084 18.9764 7.90056ZM18.8803 10.8795C18.8803 10.9338 18.8427 10.9797 18.7884 10.9881L17.0336 11.2806C16.8122 11.3182 16.6367 11.4811 16.5824 11.6942C16.4236 12.3083 16.1813 12.8974 15.8554 13.4447C15.7426 13.6369 15.751 13.8751 15.8805 14.0589L16.9125 15.5128C16.9417 15.5546 16.9375 15.6173 16.8999 15.6549L15.6549 16.8999C15.6257 16.9292 15.5964 16.9334 15.5755 16.9334C15.5504 16.9334 15.5296 16.925 15.5128 16.9125L14.0631 15.8805C13.8834 15.751 13.6411 15.7426 13.4489 15.8554C12.9016 16.1813 12.3125 16.4236 11.6984 16.5824C11.4811 16.6367 11.3182 16.8164 11.2847 17.0336L10.9881 18.7884C10.9797 18.8427 10.9338 18.8803 10.8795 18.8803H9.12054C9.06622 18.8803 9.02026 18.8427 9.01191 18.7884L8.71945 17.0336C8.68185 16.8122 8.51891 16.6367 8.30583 16.5824C7.70838 16.4278 7.13182 16.1897 6.59286 15.8805C6.50512 15.8304 6.40485 15.8053 6.30875 15.8053C6.19595 15.8053 6.07896 15.8387 5.98287 15.9098L4.52058 16.9501C4.49969 16.9626 4.4788 16.971 4.45791 16.971C4.4412 16.971 4.40777 16.9668 4.37853 16.9375L3.13349 15.6925C3.09588 15.6549 3.09171 15.5964 3.12095 15.5504L4.14874 14.109C4.27825 13.9252 4.28661 13.6829 4.1738 13.4907C3.84792 12.9476 3.59724 12.3585 3.43848 11.7443C3.37999 11.5312 3.20451 11.3683 2.98726 11.3307L1.21997 11.0299C1.16566 11.0215 1.12806 10.9756 1.12806 10.9212V9.16231C1.12806 9.108 1.16566 9.06204 1.21997 9.05369L2.96219 8.76123C3.18362 8.72363 3.36328 8.56069 3.41759 8.34343C3.57218 7.72927 3.81032 7.13599 4.13202 6.58868C4.24483 6.39649 4.2323 6.15835 4.10278 5.97869L3.06246 4.5164C3.03322 4.47462 3.03739 4.41195 3.07499 4.37435L4.32003 3.12931C4.34928 3.10006 4.37853 3.09588 4.39942 3.09588C4.42448 3.09588 4.44537 3.10424 4.46209 3.11677L5.90349 4.14456C6.08732 4.27408 6.32964 4.28243 6.52183 4.16963C7.06497 3.84374 7.65406 3.59306 8.26823 3.4343C8.4813 3.37581 8.64425 3.20033 8.68185 2.98308L8.98266 1.21579C8.99102 1.16148 9.03698 1.12388 9.09129 1.12388H10.8502C10.9045 1.12388 10.9505 1.16148 10.9588 1.21579L11.2513 2.95801C11.2889 3.17944 11.4518 3.3591 11.6691 3.41341C12.3 3.57217 12.9016 3.81868 13.4615 4.14874C13.6536 4.26154 13.8918 4.25319 14.0756 4.12367L15.517 3.08753C15.5379 3.075 15.5588 3.06664 15.5797 3.06664C15.5964 3.06664 15.6298 3.07082 15.6591 3.10006L16.9041 4.3451C16.9417 4.3827 16.9459 4.4412 16.9167 4.48715L15.8847 5.93691C15.7552 6.11657 15.7468 6.35889 15.8596 6.55108C16.1855 7.09839 16.4278 7.68749 16.5866 8.30165C16.6409 8.51891 16.8206 8.68185 17.0378 8.71527L18.7926 9.01191C18.8469 9.02026 18.8845 9.06622 18.8845 9.12053V10.8795H18.8803V10.8795Z" fill="#FAFAFA"/>
<path d="M10.0021 5.68126C7.62068 5.68126 5.68628 7.61566 5.68628 9.99711C5.68628 12.3786 7.62068 14.313 10.0021 14.313C12.3836 14.313 14.318 12.3786 14.318 9.99711C14.318 7.61566 12.3836 5.68126 10.0021 5.68126ZM10.0021 13.1849C8.2432 13.1849 6.81433 11.756 6.81433 9.99711C6.81433 8.23818 8.2432 6.80931 10.0021 6.80931C11.7611 6.80931 13.1899 8.23818 13.1899 9.99711C13.1899 11.756 11.7611 13.1849 10.0021 13.1849Z" fill="#FAFAFA"/>
</svg>
