<svg width="50" height="24" viewBox="0 0 50 24" fill="none" xmlns="http://www.w3.org/2000/svg">
<path d="M8.57265 16.4495H12.0466V7.01853H8.57265V3.17972H20.0171V7.01853H16.5407V16.452H20.0146V20.2908H8.57265V16.4495Z" fill="#FAFAFA"/>
<path d="M36.4923 20.2883L27.3982 10.0322V20.2883H22.8512V3.17972H27.9096L36.9534 13.4887V3.17972H41.45V20.2908H36.4923V20.2883Z" fill="#FAFAFA"/>
<path d="M7.11911 23.4706H6.09633C4.78638 23.4706 3.85429 23.1989 3.30008 22.653C2.74587 22.1071 2.46876 21.209 2.46876 19.9563V14.754C2.46876 13.9918 2.3025 13.4459 1.96997 13.1189C1.63744 12.7918 1.21927 12.6283 0.720476 12.6283H0V10.8926H0.720476C1.21927 10.8926 1.63493 10.729 1.96745 10.3995C2.29998 10.07 2.46876 9.52407 2.46876 8.75681V3.52939C2.46876 2.27159 2.74587 1.36849 3.30008 0.820086C3.85429 0.271685 4.78638 0 6.09633 0H7.12163V1.73577H6.48428C5.43128 1.73577 4.81157 1.97223 4.62767 2.44516C4.51683 2.71937 4.46141 3.1923 4.46141 3.86648V9.00334C4.46141 10.2787 3.87948 11.1894 2.71816 11.7353C3.87948 12.2812 4.46141 13.1918 4.46141 14.4672V19.6041C4.46141 20.6254 4.63775 21.2518 4.98791 21.4883C5.22723 21.6518 5.72602 21.7348 6.48428 21.7348H7.12163V23.4706H7.11911Z" fill="#FAFAFA"/>
<path d="M50 12.6283H49.3072C48.8084 12.6283 48.3928 12.7918 48.0628 13.1189C47.7303 13.4459 47.564 13.9918 47.564 14.754V19.9563C47.564 21.209 47.2869 22.1096 46.7327 22.653C46.1785 23.1989 45.2439 23.4706 43.9314 23.4706H42.8784V21.7348H43.5459C44.3798 21.7348 44.9264 21.6065 45.1859 21.3524C45.4454 21.0984 45.5764 20.5147 45.5764 19.6041V14.4672C45.5764 13.1918 46.1558 12.2812 47.3146 11.7353C46.1558 11.1894 45.5764 10.2787 45.5764 9.00334V3.86648C45.5764 2.86527 45.39 2.23637 45.0196 1.98229C44.7778 1.81878 44.2866 1.73577 43.5459 1.73577H42.8784V0H43.9314C45.2439 0 46.1759 0.2742 46.7327 0.820086C47.2869 1.36849 47.564 2.27159 47.564 3.52939V8.75681C47.564 9.52407 47.7303 10.07 48.0628 10.3995C48.3953 10.729 48.8084 10.8926 49.3072 10.8926H50V12.6283Z" fill="#FAFAFA"/>
</svg>
